<?xml version="1.0" encoding="UTF-8"?>
<svg version="1.1" xmlns="http://www.w3.org/2000/svg" width="1024" height="1024">
<path d="M0 0 C1.6766308 0.82516126 3.36257972 1.6313432 5.05029297 2.43359375 C10.71518665 5.15693247 15.82155489 8.35432748 20.96044922 11.96484375 C22.22085791 12.84115731 23.48127536 13.71745826 24.74169922 14.59375 C29.17123852 17.68509728 33.57019475 20.81802702 37.96044922 23.96484375 C38.99709717 24.70444336 38.99709717 24.70444336 40.0546875 25.45898438 C49.85484254 32.48630937 58.70732173 40.13540865 67.39794922 48.48779297 C69.36038885 50.34291168 71.39725493 52.09803165 73.46044922 53.83984375 C77.37170822 57.22345967 80.63979795 61.01043001 83.96044922 64.96484375 C85.19601562 66.38603516 85.19601562 66.38603516 86.45654297 67.8359375 C137.04210137 126.21090572 162.81747136 203.80260697 157.44287109 280.80810547 C154.90787719 311.82982708 147.90562949 342.21921436 135.96044922 370.96484375 C135.59693359 371.84076172 135.23341797 372.71667969 134.85888672 373.61914062 C122.54100325 402.8851911 105.51298872 429.63204176 83.96044922 452.96484375 C82.4173333 454.69271722 80.87566338 456.42188317 79.33544922 458.15234375 C73.2553919 464.89625482 66.90165603 471.11224235 59.96044922 476.96484375 C59.17831055 477.63362549 59.17831055 477.63362549 58.38037109 478.31591797 C9.47805745 519.96484375 9.47805745 519.96484375 -8.03955078 519.96484375 C-8.36955078 520.62484375 -8.69955078 521.28484375 -9.03955078 521.96484375 C-11.30184618 522.95097251 -13.53194388 523.82310402 -15.85205078 524.65234375 C-16.56490234 524.91144531 -17.27775391 525.17054688 -18.01220703 525.4375 C-19.55478322 525.99601896 -21.09862185 526.55106063 -22.64355469 527.10302734 C-25.00497749 527.95240808 -27.3563577 528.8257965 -29.70751953 529.703125 C-99.53506613 555.39863433 -178.74012905 552.29585745 -246.30810547 521.11010742 C-247.80857895 520.40970486 -249.30859481 519.70832092 -250.80810547 519.00585938 C-253.15318549 517.91183079 -255.50260219 516.82926661 -257.85986328 515.76171875 C-258.91971436 515.27977051 -258.91971436 515.27977051 -260.00097656 514.78808594 C-261.99739054 513.98186942 -263.94062363 513.43284379 -266.03955078 512.96484375 C-266.03955078 511.31484375 -266.03955078 509.66484375 -266.03955078 507.96484375 C-265.37955078 507.96484375 -264.71955078 507.96484375 -264.03955078 507.96484375 C-263.70955078 506.97484375 -263.37955078 505.98484375 -263.03955078 504.96484375 C-259.1826055 506.13361505 -255.70161202 507.57981779 -252.1472168 509.47680664 C-236.08210952 518.02135772 -218.76436745 524.14696335 -201.28955078 529.08984375 C-200.24871338 529.38511963 -199.20787598 529.68039551 -198.13549805 529.98461914 C-193.34454083 531.28239268 -189.05227483 532.35699563 -184.03955078 531.96484375 C-184.03955078 532.62484375 -184.03955078 533.28484375 -184.03955078 533.96484375 C-183.36449493 534.01917572 -182.68943909 534.07350769 -181.993927 534.12948608 C-176.42790342 534.60267507 -170.93315934 535.24281794 -165.41433716 536.10092163 C-152.95845479 538.00760368 -140.747945 538.44335625 -128.16455078 538.33984375 C-127.16107605 538.33552338 -126.15760132 538.331203 -125.12371826 538.32675171 C-110.22973917 538.25171199 -95.70850619 537.74586683 -81.03955078 534.96484375 C-80.06018555 534.78791992 -79.08082031 534.61099609 -78.07177734 534.42871094 C-49.33645398 529.16526512 -21.78999614 519.85042325 3.96044922 505.96484375 C4.59144531 505.63194336 5.22244141 505.29904297 5.87255859 504.95605469 C34.14235283 489.99886666 62.26983193 468.72687927 82.39794922 443.65234375 C83.16236328 442.70101563 83.92677734 441.7496875 84.71435547 440.76953125 C85.45556641 439.84398437 86.19677734 438.9184375 86.96044922 437.96484375 C87.60884766 437.18367188 88.25724609 436.4025 88.92529297 435.59765625 C110.40983481 409.49986923 133.69547169 372.91630961 137.96044922 338.96484375 C138.62044922 338.96484375 139.28044922 338.96484375 139.96044922 338.96484375 C140.07654541 338.29984863 140.1926416 337.63485352 140.31225586 336.94970703 C141.33770568 331.18073132 142.49003128 325.45909818 143.76245117 319.73999023 C153.51802869 275.21962705 155.54434656 219.99821032 137.96044922 176.96484375 C137.30044922 176.63484375 136.64044922 176.30484375 135.96044922 175.96484375 C135.84830078 174.87042969 135.73615234 173.77601563 135.62060547 172.6484375 C135.00977778 166.71562514 132.65918469 161.49970017 130.39794922 156.02734375 C129.94758301 154.92285889 129.4972168 153.81837402 129.03320312 152.68041992 C116.12113522 121.30852216 98.80954572 93.88560266 76.30151367 68.51318359 C75.09844216 67.12416493 73.9529606 65.68575528 72.81591797 64.2421875 C71.08867976 62.12222986 69.3708534 60.45650005 67.27294922 58.71484375 C64.2202025 56.11351984 61.38153797 53.40261377 58.58544922 50.52734375 C53.99694766 45.90778635 49.15872867 41.88034365 43.96044922 37.96484375 C43.0386084 37.2689917 43.0386084 37.2689917 42.09814453 36.55908203 C-20.81827849 -10.65086704 -96.99318527 -32.0475378 -175.28564453 -21.22265625 C-194.27546286 -18.34367466 -213.12625127 -14.02775061 -231.03955078 -7.03515625 C-232.02955078 -6.70515625 -233.01955078 -6.37515625 -234.03955078 -6.03515625 C-259.57975944 3.29463123 -283.45420201 16.40230073 -305.03955078 32.96484375 C-305.55759277 33.35430176 -306.07563477 33.74375977 -306.609375 34.14501953 C-316.34816304 41.47251429 -325.28444808 49.49414737 -334.03955078 57.96484375 C-334.53986816 58.44856445 -335.04018555 58.93228516 -335.55566406 59.43066406 C-340.36160247 63.76323556 -340.36160247 63.76323556 -344.03955078 68.96484375 C-343.49242432 69.16005615 -342.94529785 69.35526855 -342.3815918 69.55639648 C-317.53084851 78.50598546 -292.87387367 90.96033119 -274.03955078 109.96484375 C-273.04955078 110.62484375 -272.05955078 111.28484375 -271.03955078 111.96484375 C-269.54138946 113.36914863 -268.07072085 114.80296878 -266.61767578 116.25390625 C-265.75658203 117.11371094 -264.89548828 117.97351563 -264.00830078 118.859375 C-263.11111328 119.76042969 -262.21392578 120.66148437 -261.28955078 121.58984375 C-260.40783203 122.46769531 -259.52611328 123.34554687 -258.61767578 124.25 C-254.04556993 128.82890958 -249.60708197 133.4616079 -245.40576172 138.38427734 C-244.33450583 139.62361091 -243.19789807 140.80649646 -242.03955078 141.96484375 C-239.9721647 144.57969095 -238.02266361 147.28583128 -236.03955078 149.96484375 C-235.31123047 150.92648437 -234.58291016 151.888125 -233.83251953 152.87890625 C-216.69836903 175.66889086 -201.16936148 200.0151859 -187.37158203 224.953125 C-186.0423777 227.24283103 -186.0423777 227.24283103 -183.03955078 228.96484375 C-182.66622595 230.62301065 -182.33826401 232.29162551 -182.03955078 233.96484375 C-180.8564672 236.52055604 -180.8564672 236.52055604 -179.33642578 239.11328125 C-178.76666016 240.12132812 -178.19689453 241.129375 -177.60986328 242.16796875 C-177.00916016 243.2146875 -176.40845703 244.26140625 -175.78955078 245.33984375 C-175.23525391 246.31695312 -174.68095703 247.2940625 -174.10986328 248.30078125 C-172.90935785 250.41620933 -171.70604787 252.53004787 -170.50018311 254.64242554 C-167.40891225 260.06520645 -164.34122022 265.50132074 -161.27099609 270.93603516 C-160.67034332 271.99901321 -160.06969055 273.06199127 -159.45083618 274.15718079 C-157.98028396 276.75966522 -156.50985867 279.36222128 -155.03955078 281.96484375 C-155.01598002 266.02006681 -154.99845481 250.07529474 -154.98773861 234.13050461 C-154.9826262 226.72371583 -154.9756825 219.31693799 -154.96411133 211.91015625 C-154.95400723 205.43926206 -154.94766084 198.96837582 -154.94546229 192.49747396 C-154.94418126 189.08496314 -154.94126776 185.67247501 -154.93382072 182.25997162 C-154.91686678 173.49416447 -154.94484333 164.7301819 -155.03955078 155.96484375 C-155.05859404 154.0569381 -155.05859404 154.0569381 -155.078022 152.11048889 C-155.1270913 148.32571866 -155.20624797 144.54280123 -155.2956543 140.75878906 C-155.30937293 139.63213207 -155.32309156 138.50547508 -155.33722591 137.34467697 C-155.63165224 127.42975369 -157.670733 117.99871527 -165.03955078 110.96484375 C-170.2568301 106.97179445 -175.75527451 104.75411686 -182.03955078 102.96484375 C-182.03955078 102.63484375 -182.03955078 102.30484375 -182.03955078 101.96484375 C-177.2239678 101.81918699 -172.4082984 101.67696532 -167.5925293 101.53759766 C-165.96262029 101.48998341 -164.33273597 101.44151457 -162.70288086 101.39208984 C-154.06474444 101.13073221 -145.42796146 100.91353548 -136.78564453 100.87109375 C-136.10719986 100.86460815 -135.42875519 100.85812256 -134.72975159 100.85144043 C-130.38858964 100.84738077 -126.30961118 101.26520785 -122.03955078 101.96484375 C-122.69955078 102.95484375 -123.35955078 103.94484375 -124.03955078 104.96484375 C-124.88517578 105.06796875 -125.73080078 105.17109375 -126.60205078 105.27734375 C-133.10517945 106.57796948 -138.26253535 110.62294422 -142.41455078 115.71484375 C-148.32020805 124.62102906 -148.46214858 133.93788981 -148.36425781 144.34375 C-148.36176937 145.76740351 -148.36062756 147.1910599 -148.36071777 148.61471558 C-148.35802822 151.66161087 -148.3458947 154.70826418 -148.32617569 157.75509644 C-148.29494869 162.58095418 -148.28484793 167.40672153 -148.27731323 172.23266602 C-148.26286393 179.87033598 -148.23397082 187.50787316 -148.19906604 195.14547443 C-148.1370534 208.81420714 -148.09942538 222.48301824 -148.06747329 236.1518507 C-148.05570364 240.9410526 -148.03756614 245.73017514 -148.01395822 250.51933289 C-148.00004417 253.50691083 -147.99024243 256.4944934 -147.98132324 259.48209 C-147.97390966 261.51020128 -147.96128382 263.53829146 -147.94845581 265.56637573 C-147.93358194 271.73412605 -148.07209096 277.75847653 -148.8597393 283.88002014 C-149.72775305 293.94420282 -142.99183405 302.722272 -138.03955078 310.96484375 C-137.55615234 311.77421387 -137.07275391 312.58358398 -136.57470703 313.41748047 C-134.17763425 317.42168159 -131.76538882 321.41674677 -129.32470703 325.39453125 C-128.93162354 326.03632324 -128.53854004 326.67811523 -128.13354492 327.33935547 C-127.00725473 329.12501348 -127.00725473 329.12501348 -125.03955078 330.96484375 C-123.975104 332.59603652 -122.93723301 334.2446472 -121.91455078 335.90234375 C-100.38106645 369.94912596 -70.11027087 399.57577392 -29.92260742 408.81201172 C-20.0729903 410.93174936 -10.56349972 411.08972859 -0.53955078 411.02734375 C0.8693018 411.02231908 2.27815611 411.01775788 3.68701172 411.01367188 C7.1115356 411.00194405 10.53596969 410.98553066 13.96044922 410.96484375 C14.29044922 412.61484375 14.62044922 414.26484375 14.96044922 415.96484375 C-7.80154808 423.38723417 -37.69918114 418.38956837 -59.16455078 408.76171875 C-60.99986575 407.91549681 -60.99986575 407.91549681 -62.89404297 407.54736328 C-81.23350385 402.56807861 -99.41841826 386.90992017 -113.35766602 374.45800781 C-114.53916634 373.40908112 -115.72963178 372.37020803 -116.92651367 371.33886719 C-128.65068507 361.2284039 -139.51446746 350.16833363 -149.03955078 337.96484375 C-150.03735749 336.75232345 -151.03894773 335.54291089 -152.04345703 334.3359375 C-159.89156754 324.88181125 -167.1261194 315.12001245 -174.03955078 304.96484375 C-174.53310059 304.24039062 -175.02665039 303.5159375 -175.53515625 302.76953125 C-181.91702332 293.36598615 -188.09001148 283.84509714 -194.03173828 274.15673828 C-196.42784445 270.29698853 -198.75428571 267.13303924 -202.03955078 263.96484375 C-202.98095703 262.078125 -202.98095703 262.078125 -203.60205078 260.27734375 C-204.07642578 259.18421875 -204.55080078 258.09109375 -205.03955078 256.96484375 C-206.02955078 256.63484375 -207.01955078 256.30484375 -208.03955078 255.96484375 C-208.03955078 254.64484375 -208.03955078 253.32484375 -208.03955078 251.96484375 C-209.50984741 248.58173403 -211.42507231 245.57932222 -214.03955078 242.96484375 C-214.71635393 241.62588686 -215.35622664 240.26815686 -215.97705078 238.90234375 C-218.54554765 233.64930347 -221.57578504 228.75630949 -224.72705078 223.83984375 C-225.21488037 223.06890381 -225.70270996 222.29796387 -226.20532227 221.50366211 C-226.67010986 220.78702393 -227.13489746 220.07038574 -227.61376953 219.33203125 C-228.24158325 218.35919189 -228.24158325 218.35919189 -228.88208008 217.36669922 C-229.26404541 216.90408691 -229.64601074 216.44147461 -230.03955078 215.96484375 C-230.69955078 215.96484375 -231.35955078 215.96484375 -232.03955078 215.96484375 C-232.03955078 215.30484375 -232.03955078 214.64484375 -232.03955078 213.96484375 C-232.69955078 213.63484375 -233.35955078 213.30484375 -234.03955078 212.96484375 C-234.03955078 211.64484375 -234.03955078 210.32484375 -234.03955078 208.96484375 C-235.10739708 206.37150275 -236.03704978 204.96734475 -238.03955078 202.96484375 C-239.34429474 200.77010888 -240.60944904 198.56915773 -241.85205078 196.33984375 C-242.56977593 195.07103431 -243.28852208 193.80280186 -244.00830078 192.53515625 C-244.53037109 191.61524902 -244.53037109 191.61524902 -245.06298828 190.67675781 C-248.6416979 184.0336874 -248.6416979 184.0336874 -254.03955078 178.96484375 C-254.03955078 178.30484375 -254.03955078 177.64484375 -254.03955078 176.96484375 C-254.69732508 175.7297502 -255.41276219 174.52501153 -256.15673828 173.33984375 C-256.59888672 172.6334375 -257.04103516 171.92703125 -257.49658203 171.19921875 C-257.96451172 170.461875 -258.43244141 169.72453125 -258.91455078 168.96484375 C-259.37474609 168.2275 -259.83494141 167.49015625 -260.30908203 166.73046875 C-262.87886722 162.61875631 -262.87886722 162.61875631 -266.03955078 158.96484375 C-267.45841061 156.67602607 -268.73112448 154.3200111 -270.03955078 151.96484375 C-270.69955078 151.96484375 -271.35955078 151.96484375 -272.03955078 151.96484375 C-272.15274658 151.38452393 -272.26594238 150.8042041 -272.38256836 150.20629883 C-273.10088442 147.75558913 -274.07598756 146.17875745 -275.55126953 144.1015625 C-276.06238281 143.37904297 -276.57349609 142.65652344 -277.10009766 141.91210938 C-277.63699219 141.16638672 -278.17388672 140.42066406 -278.72705078 139.65234375 C-279.24460937 138.91822266 -279.76216797 138.18410156 -280.29541016 137.42773438 C-283.65179678 132.71708963 -287.2158506 128.30448549 -291.03955078 123.96484375 C-292.3613754 125.06110605 -292.3613754 125.06110605 -292.15815449 127.77738094 C-292.15505363 129.0466068 -292.15195276 130.31583265 -292.14875793 131.6235199 C-292.14835107 132.32785677 -292.14794421 133.03219365 -292.14752501 133.75787407 C-292.14481131 136.13606306 -292.13478627 138.51416538 -292.12475586 140.89233398 C-292.12116228 142.59051946 -292.1179568 144.2887058 -292.1151123 145.9868927 C-292.10571085 150.61548298 -292.08936815 155.24402254 -292.07074189 159.8725841 C-292.05911572 162.76505551 -292.0484447 165.65752907 -292.03800011 168.55000496 C-292.00472515 177.60133211 -291.96664468 186.65262325 -291.9226349 195.70390457 C-291.87200146 206.14794216 -291.83770225 216.59186579 -291.81745416 227.03600544 C-291.80074608 235.1083838 -291.76883196 243.18061543 -291.72560805 251.25289494 C-291.70016081 256.07330657 -291.68118418 260.89353552 -291.67823219 265.71401787 C-291.67506723 270.25562203 -291.65296241 274.79675264 -291.61667633 279.33820915 C-291.60660846 280.99975379 -291.60321336 282.66135523 -291.60720634 284.32292557 C-291.62705925 294.54818624 -290.81950428 302.80491953 -285.35205078 311.71484375 C-279.64409939 317.26852618 -273.8633657 320.54233195 -266.03955078 321.96484375 C-266.03955078 322.62484375 -266.03955078 323.28484375 -266.03955078 323.96484375 C-285.50955078 323.96484375 -304.97955078 323.96484375 -325.03955078 323.96484375 C-324.70955078 323.30484375 -324.37955078 322.64484375 -324.03955078 321.96484375 C-322.03564453 321.32421875 -322.03564453 321.32421875 -319.47705078 320.71484375 C-311.43166634 318.40466908 -306.09327405 314.19330275 -302.00048828 306.88671875 C-296.41483338 295.71540894 -297.89742947 281.93896611 -297.92602539 269.72167969 C-297.92630803 268.01549786 -297.92614804 266.30931591 -297.92558289 264.60313416 C-297.92529789 260.00687307 -297.93114619 255.41063848 -297.93815684 250.81438351 C-297.94444024 245.99777806 -297.94499811 241.1811719 -297.94618225 236.36456299 C-297.94928093 227.25951162 -297.95747448 218.15447237 -297.96753174 209.04942632 C-297.97873847 198.67691657 -297.98421479 188.30440622 -297.98922718 177.93189192 C-297.99965841 156.60953579 -298.01722934 135.28719053 -298.03955078 113.96484375 C-299.02955078 113.63484375 -300.01955078 113.30484375 -301.03955078 112.96484375 C-302.36376953 111.58203125 -302.36376953 111.58203125 -303.72705078 109.83984375 C-309.80317842 102.50967503 -317.5681764 96.80069339 -325.03955078 90.96484375 C-325.60029297 90.51238281 -326.16103516 90.05992187 -326.73876953 89.59375 C-332.58507179 85.10225834 -339.42663916 82.14747944 -346.03955078 78.96484375 C-346.36955078 79.62484375 -346.69955078 80.28484375 -347.03955078 80.96484375 C-347.03955078 79.97484375 -347.03955078 78.98484375 -347.03955078 77.96484375 C-349.41146869 77.67396902 -349.41146869 77.67396902 -352.03955078 77.96484375 C-353.77518305 79.38628217 -353.77518305 79.38628217 -355.09033203 81.4453125 C-355.61957275 82.19006836 -356.14881348 82.93482422 -356.6940918 83.70214844 C-357.24121826 84.51071289 -357.78834473 85.31927734 -358.35205078 86.15234375 C-358.92818115 86.98024414 -359.50431152 87.80814453 -360.09790039 88.66113281 C-364.66678856 95.27995746 -369.04414515 101.98308078 -373.03955078 108.96484375 C-373.48121582 109.72684082 -373.92288086 110.48883789 -374.37792969 111.27392578 C-385.66147441 130.86095383 -394.27117332 150.91699983 -400.44091797 172.67675781 C-400.74030273 173.71670898 -401.0396875 174.75666016 -401.34814453 175.828125 C-401.60394287 176.74891846 -401.85974121 177.66971191 -402.12329102 178.6184082 C-403.08868444 181.09066937 -403.93111132 182.36813206 -406.03955078 183.96484375 C-408.22705078 183.65234375 -408.22705078 183.65234375 -410.03955078 182.96484375 C-405.72214981 145.67143194 -384.75249674 109.39367125 -363.00048828 79.65234375 C-361.63874339 77.78604796 -360.32106541 75.88711569 -359.03955078 73.96484375 C-384.22323946 69.27058056 -408.04848022 68.31981921 -433.03955078 74.96484375 C-435.03955078 71.96484375 -435.03955078 71.96484375 -435.03955078 68.96484375 C-410.37034575 60.76830143 -383.54783733 59.74452026 -358.16064453 65.6953125 C-355.49415301 66.03414844 -353.60408732 65.7727349 -351.03955078 64.96484375 C-349.32980445 63.52217911 -349.32980445 63.52217911 -347.91455078 61.58984375 C-341.0812877 53.2976269 -333.25648084 45.87248275 -325.03955078 38.96484375 C-324.17072266 38.21847656 -323.30189453 37.47210938 -322.40673828 36.703125 C-276.09178658 -2.63370731 -220.28536951 -24.93031148 -160.03955078 -31.03515625 C-158.86134766 -31.16664063 -157.68314453 -31.298125 -156.46923828 -31.43359375 C-102.9015189 -36.60854314 -47.84250832 -23.61311597 0 0 Z " fill="#080808" transform="translate(650.03955078125,236.03515625)"/>
<path d="M0 0 C0.8819069 2.64572071 1.45674844 5.11572175 1.98046875 7.84765625 C2.26821167 9.32637207 2.26821167 9.32637207 2.56176758 10.83496094 C2.76825928 11.90004883 2.97475098 12.96513672 3.1875 14.0625 C5.25673678 24.62980596 7.58428381 35.11712345 10.11987305 45.58227539 C10.36519775 46.61215576 10.61052246 47.64203613 10.86328125 48.703125 C11.19259644 50.05905762 11.19259644 50.05905762 11.52856445 51.44238281 C12.00399475 54.02167218 12.08569852 56.38369203 12 59 C11.34 58.67 10.68 58.34 10 58 C10 57.01 10 56.02 10 55 C9.01 54.67 8.02 54.34 7 54 C7 53.01 7 52.02 7 51 C-3.68248536 33.57506284 -19.86700858 23.08538666 -39.625 18.25 C-45.07992733 17.10329912 -50.43296388 16.27962282 -56 16 C-56.96035156 15.94714844 -57.92070313 15.89429688 -58.91015625 15.83984375 C-72.60934799 15.4494083 -85.69765505 17.90990299 -98 24 C-98.89847656 24.41894531 -99.79695312 24.83789062 -100.72265625 25.26953125 C-113.48010136 31.63907579 -123.19568134 41.15525653 -131 53 C-131.61359375 53.92167969 -132.2271875 54.84335937 -132.859375 55.79296875 C-155.06376793 91.408422 -156.07393113 139.64378529 -147.23510742 179.51123047 C-140.58346654 207.18904088 -125.8162749 234.7522298 -101.11791992 250.06567383 C-84.04883923 260.22778544 -64.74514405 262.16359925 -45.515625 257.91015625 C-33.66082393 254.84107997 -24.1059697 249.19003269 -17 239 C-13.06600025 231.40618837 -11.88433525 223.97773723 -11.85473633 215.45727539 C-11.84835648 214.20229752 -11.84197662 212.94731964 -11.83540344 211.65431213 C-11.83387458 210.3020939 -11.83276072 208.94987515 -11.83203125 207.59765625 C-11.82881242 206.1919298 -11.82544789 204.78620368 -11.82194519 203.38047791 C-11.81597939 200.44285302 -11.81410273 197.50525746 -11.81469727 194.56762695 C-11.8147989 190.82102563 -11.80113379 187.07461374 -11.78392506 183.32805729 C-11.77275748 180.42739514 -11.77077949 177.52677817 -11.77130699 174.62609673 C-11.77013454 173.24553206 -11.76575449 171.86496593 -11.75797462 170.48442268 C-11.70593729 160.29974393 -12.06643208 150.68843873 -18 142 C-21.167591 139.42633231 -23.93308803 137.62567876 -28 137 C-27.67 136.01 -27.34 135.02 -27 134 C-6.87 134 13.26 134 34 134 C34.33 134.66 34.66 135.32 35 136 C34.39671875 136.23074219 33.7934375 136.46148437 33.171875 136.69921875 C26.60112516 139.38050861 23.628809 141.86303452 20.3125 148.25 C17.61428232 155.95919338 17.85727743 164.02906856 17.88647461 172.11938477 C17.88625557 173.73069527 17.88625557 173.73069527 17.8860321 175.3745575 C17.88672431 178.89686153 17.89448413 182.41911154 17.90234375 185.94140625 C17.90421039 188.39477001 17.90563313 190.84813415 17.90663147 193.30149841 C17.91043728 199.73761028 17.92025094 206.17369935 17.93133545 212.60980225 C17.94159129 219.18582857 17.94613801 225.7618586 17.95117188 232.33789062 C17.96187503 245.22527011 17.97873402 258.11263384 18 271 C17.34 271 16.68 271 16 271 C13 265.25 13 265.25 13 263 C12.2265625 262.62875 12.2265625 262.62875 11.4375 262.25 C8.83858126 260.91722116 6.36612925 259.43161079 3.87890625 257.90234375 C-8.67879932 251.87151218 -23.83458915 257.98859541 -36.08837891 261.96923828 C-57.86763502 268.98183501 -80.99952467 269.35208666 -103 263 C-103.9912085 262.74814941 -103.9912085 262.74814941 -105.00244141 262.49121094 C-106.68515712 262.05461905 -108.34559887 261.53394903 -110 261 C-110.33 260.34 -110.66 259.68 -111 259 C-112.31677734 258.56107422 -112.31677734 258.56107422 -113.66015625 258.11328125 C-129.85378852 252.71540383 -145.17067885 237.43779086 -155 224 C-155.74636719 223.00613281 -156.49273438 222.01226563 -157.26171875 220.98828125 C-170.88426485 202.18500454 -178.20927231 181.27990233 -182.49804688 158.62548828 C-182.92020999 156.41734522 -183.38356328 154.22423772 -183.859375 152.02734375 C-189.20594254 122.0670049 -179.45296957 87.19591528 -163 62 C-158.21822639 55.20543332 -152.65155081 49.0756637 -147 43 C-146.37480469 42.3090625 -145.74960937 41.618125 -145.10546875 40.90625 C-126.39462147 21.05305625 -97.11925658 9.84099766 -70.2578125 8.76171875 C-59.6136144 8.53823217 -49.51017856 9.34006935 -39 11.0625 C-22.08854492 13.85096067 -22.08854492 13.85096067 -6 9 C-5.34 9 -4.68 9 -4 9 C-3.71125 8.2575 -3.4225 7.515 -3.125 6.75 C-2.17697356 4.43260203 -1.15154089 2.22082885 0 0 Z " fill="#030303" transform="translate(700,321)"/>
<path d="M0 0 C1.125 1.75 1.125 1.75 2 4 C0.69916762 8.08954493 -2.13900769 9.80846297 -5.5625 12.1875 C-8.92743379 14.41352467 -8.92743379 14.41352467 -12 17 C-7.71 17.33 -3.42 17.66 1 18 C1 19.65 1 21.3 1 23 C-7.25 23 -15.5 23 -24 23 C-21.94544551 16.83633653 -20.55444415 15.4115995 -15.4375 12.25 C-11.06824078 9.7639345 -11.06824078 9.7639345 -8 6 C-8.66 6.165 -9.32 6.33 -10 6.5 C-13.73099794 7.12183299 -17.21873378 7.06408926 -21 7 C-21.12375 6.360625 -21.2475 5.72125 -21.375 5.0625 C-21.684375 4.0415625 -21.684375 4.0415625 -22 3 C-22.66 2.67 -23.32 2.34 -24 2 C-19.24243735 0.76226012 -14.62281838 0.92265368 -9.75 1 C-6.82770487 1.04551862 -3.92349185 1.047344 -1 1 C-0.67 0.67 -0.34 0.34 0 0 Z " fill="#171717" transform="translate(256,465)"/>
<path d="M0 0 C3.12935187 3.34767874 4.34222064 5.5226256 5.6875 9.875 C5.5 12.25 5.5 12.25 4.6875 13.875 C4.0275 14.205 3.3675 14.535 2.6875 14.875 C2.0275 14.545 1.3675 14.215 0.6875 13.875 C0.6875 12.885 0.6875 11.895 0.6875 10.875 C0.0275 10.545 -0.6325 10.215 -1.3125 9.875 C-0.6525 9.875 0.0075 9.875 0.6875 9.875 C-1.68879089 5.72829961 -1.68879089 5.72829961 -5.3125 2.875 C-8.98579964 2.74142547 -11.81102959 2.7078432 -15.3125 3.875 C-16.19661083 5.83654398 -16.19661083 5.83654398 -16.625 8.1875 C-16.80675781 8.96738281 -16.98851562 9.74726562 -17.17578125 10.55078125 C-17.33830308 13.3136523 -16.87271063 14.60789782 -15.3125 16.875 C-12.75730079 17.68671228 -12.75730079 17.68671228 -10.3125 17.875 C-9.3225 14.41 -9.3225 14.41 -8.3125 10.875 C-7.6525 10.875 -6.9925 10.875 -6.3125 10.875 C-4.47314141 13.97891762 -3.75777561 16.26929145 -4.3125 19.875 C-6.49285748 22.30693719 -7.97338674 22.81602378 -11.1875 23.375 C-15.46339194 22.69085729 -17.31514483 20.94047688 -20.3125 17.875 C-22.15199185 14.83583956 -22.31725504 13.12701731 -22.25 9.5625 C-21.09083629 5.00312276 -19.38519516 1.45255726 -16.3125 -2.125 C-10.9154606 -4.60472081 -4.77751035 -3.06481796 0 0 Z " fill="#1D1C1B" transform="translate(293.3125,621.125)"/>
<path d="M0 0 C1.8125 1.75 1.8125 1.75 3 4 C1.64440908 8.73598853 -1.22968801 12.69414309 -3.9375 16.75 C-4.38029297 17.43449219 -4.82308594 18.11898437 -5.27929688 18.82421875 C-5.71177734 19.47519531 -6.14425781 20.12617187 -6.58984375 20.796875 C-6.98034912 21.38823242 -7.37085449 21.97958984 -7.77319336 22.58886719 C-9 24 -9 24 -12 25 C-12.6875 22.75 -12.6875 22.75 -13 20 C-11.5625 17.6875 -11.5625 17.6875 -10 16 C-10.66 15.67 -11.32 15.34 -12 15 C-13.68662458 13.35353315 -15.35511706 11.68816933 -17 10 C-18.98 10.99 -20.96 11.98 -23 13 C-23.66 12.34 -24.32 11.68 -25 11 C-25 10.01 -25 9.02 -25 8 C-22.27096253 6.87468576 -19.54177495 5.749738 -16.8125 4.625 C-16.04357422 4.30789063 -15.27464844 3.99078125 -14.48242188 3.6640625 C-12.98768335 3.04820457 -11.4917824 2.43515897 -9.99462891 1.82519531 C-8.36274986 1.15007277 -6.74706523 0.43592295 -5.13671875 -0.2890625 C-3 -1 -3 -1 0 0 Z M-4 4 C-6.64 4.99 -9.28 5.98 -12 7 C-11.67 7.99 -11.34 8.98 -11 10 C-9.68 10 -8.36 10 -7 10 C-6.67 10.66 -6.34 11.32 -6 12 C-4.37249963 9.67676547 -4.37249963 9.67676547 -3 7 C-3.33 6.01 -3.66 5.02 -4 4 Z M-8 12 C-7 14 -7 14 -7 14 Z " fill="#1C1B1B" transform="translate(329,672)"/>
<path d="M0 0 C7.26 0 14.52 0 22 0 C23.41634833 2.83269666 23.3463005 5.47466438 23.5625 8.625 C23.68818359 10.40777344 23.68818359 10.40777344 23.81640625 12.2265625 C23.87699219 13.14179687 23.93757813 14.05703125 24 15 C22.0625 15.5625 22.0625 15.5625 20 16 C17.90311466 13.90311466 18.12406963 9.89871765 18 7 C18.33 6.01 18.66 5.02 19 4 C17.35 4.66 15.7 5.32 14 6 C14 8.64 14 11.28 14 14 C12.35 14.33 10.7 14.66 9 15 C9 11.7 9 8.4 9 5 C6.40743101 5.93545998 6.40743101 5.93545998 4 8 C3.23618519 10.72714162 3.14057352 13.14167178 3 16 C2.01 16.33 1.02 16.66 0 17 C-1.70076961 15.29923039 -1.44800972 13.07647702 -1.6875 10.75 C-1.79449219 9.79609375 -1.90148437 8.8421875 -2.01171875 7.859375 C-2 5 -2 5 0 0 Z " fill="#2C2C2C" transform="translate(237,504)"/>
<path d="M0 0 C2 2 2 2 2 3.8125 C0.46033505 7.18051709 -2.0770945 8.76117877 -5 11 C-4.360625 11.28875 -3.72125 11.5775 -3.0625 11.875 C-1 13 -1 13 0 15 C1.32 15 2.64 15 4 15 C4.33 16.98 4.66 18.96 5 21 C2.69 20.67 0.38 20.34 -2 20 C-2 19.34 -2 18.68 -2 18 C-3.32 18 -4.64 18 -6 18 C-6 17.34 -6 16.68 -6 16 C-7.65 16 -9.3 16 -11 16 C-11.33 16.99 -11.66 17.98 -12 19 C-13.31266518 20.35368596 -14.64567325 21.68799596 -16 23 C-16.33 23.66 -16.66 24.32 -17 25 C-17.66 25 -18.32 25 -19 25 C-19.875 22.9375 -19.875 22.9375 -20 20 C-18.26080867 17.40994275 -16.19602066 15.20875121 -14 13 C-14.63808594 12.67386719 -15.27617187 12.34773437 -15.93359375 12.01171875 C-16.75988281 11.57472656 -17.58617187 11.13773438 -18.4375 10.6875 C-19.26121094 10.25824219 -20.08492187 9.82898438 -20.93359375 9.38671875 C-23 8 -23 8 -24 5 C-20.42355152 3.7619986 -17.66305234 4.25073929 -14 5 C-13.67 5.99 -13.34 6.98 -13 8 C-8.8275894 7.48118887 -6.74583179 6.28848726 -3.6875 3.4375 C-2.99011719 2.79683594 -2.29273438 2.15617188 -1.57421875 1.49609375 C-1.05472656 1.00238281 -0.53523438 0.50867188 0 0 Z " fill="#1E1E1E" transform="translate(261,531)"/>
<path d="M0 0 C3.53602065 2.29841342 5.92642167 5.317377 8.5 8.625 C7.51 9.12 7.51 9.12 6.5 9.625 C6.5 10.285 6.5 10.945 6.5 11.625 C5.84 11.625 5.18 11.625 4.5 11.625 C4.0875 10.820625 3.675 10.01625 3.25 9.1875 C1.70712255 6.29491495 1.70712255 6.29491495 -1.609375 5.96484375 C-3.04023438 5.79662109 -3.04023438 5.79662109 -4.5 5.625 C-4.26023437 6.50542969 -4.02046875 7.38585937 -3.7734375 8.29296875 C-3.47695313 9.45441406 -3.18046875 10.61585938 -2.875 11.8125 C-2.57335937 12.96105469 -2.27171875 14.10960937 -1.9609375 15.29296875 C-1.46400197 18.88522307 -1.72986588 20.50156979 -3.5 23.625 C-6.32001327 25.03500664 -8.37007255 24.87048451 -11.5 24.625 C-14.8962677 23.15842986 -16.17850666 22.28329589 -17.8125 18.9375 C-18.039375 18.174375 -18.26625 17.41125 -18.5 16.625 C-19.16 16.625 -19.82 16.625 -20.5 16.625 C-20.5 14.975 -20.5 13.325 -20.5 11.625 C-18.125 11.8125 -18.125 11.8125 -15.5 12.625 C-15.21125 13.40875 -14.9225 14.1925 -14.625 15 C-13.32179009 18.04082312 -12.79879806 18.21535241 -9.875 19.4375 C-8.76125 19.829375 -7.6475 20.22125 -6.5 20.625 C-6.72816406 20.07972656 -6.95632813 19.53445313 -7.19140625 18.97265625 C-9.28661327 13.47626116 -10.62886088 8.32940622 -8.5 2.625 C-5.46777586 0.21300353 -3.85494602 -0.5782419 0 0 Z " fill="#151413" transform="translate(348.5,692.375)"/>
<path d="M0 0 C2.97 0.495 2.97 0.495 6 1 C6.11214844 1.83789062 6.22429687 2.67578125 6.33984375 3.5390625 C7.06419756 7.33656234 8.22820885 10.74846508 9.5625 14.375 C9.79646484 15.01566406 10.03042969 15.65632812 10.27148438 16.31640625 C10.84299619 17.8793161 11.42084229 19.43990727 12 21 C11.01 21.33 10.02 21.66 9 22 C7 21 7 21 5.875 17.9375 C5.58625 16.968125 5.2975 15.99875 5 15 C3.24890978 15.62193894 1.49916969 16.24767998 -0.25 16.875 C-1.22453125 17.22304688 -2.1990625 17.57109375 -3.203125 17.9296875 C-5.56294327 18.83274645 -7.76905116 19.82078418 -10 21 C-10 21.99 -10 22.98 -10 24 C-10 25.66666667 -10 27.33333333 -10 29 C-10.598125 28.21625 -11.19625 27.4325 -11.8125 26.625 C-13.91085249 23.85425677 -13.91085249 23.85425677 -17 22 C-16.75219727 20.13378906 -16.75219727 20.13378906 -16 18 C-14.23413086 16.81152344 -14.23413086 16.81152344 -11.96484375 15.859375 C-10.75151367 15.33730469 -10.75151367 15.33730469 -9.51367188 14.8046875 C-8.66353516 14.45664062 -7.81339844 14.10859375 -6.9375 13.75 C-6.08349609 13.38648438 -5.22949219 13.02296875 -4.34960938 12.6484375 C-2.23836299 11.75204239 -0.12221415 10.87003498 2 10 C1.84660156 9.23300781 1.69320313 8.46601562 1.53515625 7.67578125 C1.0234375 5.1171875 0.51171875 2.55859375 0 0 Z " fill="#1D1C1C" transform="translate(273,586)"/>
<path d="M0 0 C1.03205859 2.7671136 2.05090829 5.53791254 3.0625 8.3125 C3.35705078 9.09818359 3.65160156 9.88386719 3.95507812 10.69335938 C4.22900391 11.45068359 4.50292969 12.20800781 4.78515625 12.98828125 C5.04176025 13.68477783 5.29836426 14.38127441 5.56274414 15.09887695 C6 17 6 17 5 20 C4.01 20 3.02 20 2 20 C0.3125 18 0.3125 18 -1 16 C-1.66 16.33 -2.32 16.66 -3 17 C-3.33 16.34 -3.66 15.68 -4 15 C-12.415 17.475 -12.415 17.475 -21 20 C-21 18.02 -21 16.04 -21 14 C-19.2984375 13.5978125 -19.2984375 13.5978125 -17.5625 13.1875 C-16.386875 12.795625 -15.21125 12.40375 -14 12 C-13.67 11.01 -13.34 10.02 -13 9 C-10 9 -10 9 -8 10 C-5.96855359 9.06553465 -3.96466413 8.06775224 -2 7 C-2.99 5.02 -3.98 3.04 -5 1 C-3 0 -3 0 0 0 Z " fill="#1F1F1F" transform="translate(269,559)"/>
<path d="M0 0 C0.54011719 0.39574219 1.08023437 0.79148437 1.63671875 1.19921875 C-2.03744653 5.20739905 -5.50674629 7.7251349 -10.36328125 10.19921875 C-11.02328125 10.19921875 -11.68328125 10.19921875 -12.36328125 10.19921875 C-12.36328125 11.00359375 -12.36328125 11.80796875 -12.36328125 12.63671875 C-12.36328125 13.82421875 -12.36328125 15.01171875 -12.36328125 16.19921875 C-11.84765625 16.81796875 -11.33203125 17.43671875 -10.80078125 18.07421875 C-10.32640625 18.77546875 -9.85203125 19.47671875 -9.36328125 20.19921875 C-9.69328125 21.18921875 -10.02328125 22.17921875 -10.36328125 23.19921875 C-12.01328125 23.52921875 -13.66328125 23.85921875 -15.36328125 24.19921875 C-15.61078125 23.14734375 -15.85828125 22.09546875 -16.11328125 21.01171875 C-17.12999678 17.36480435 -18.93963885 15.10758963 -21.36328125 12.19921875 C-21.36328125 11.20921875 -21.36328125 10.21921875 -21.36328125 9.19921875 C-20.45578125 8.84859375 -19.54828125 8.49796875 -18.61328125 8.13671875 C-13.79692608 6.12744175 -9.51081839 3.24532415 -5.1328125 0.4296875 C-2.36328125 -0.80078125 -2.36328125 -0.80078125 0 0 Z " fill="#282827" transform="translate(308.36328125,647.80078125)"/>
<path d="M0 0 C3.53602065 2.29841342 5.92642167 5.317377 8.5 8.625 C7.51 9.12 7.51 9.12 6.5 9.625 C6.5 10.285 6.5 10.945 6.5 11.625 C5.84 11.625 5.18 11.625 4.5 11.625 C3.88125 10.4184375 3.88125 10.4184375 3.25 9.1875 C1.69196489 6.30000908 1.69196489 6.30000908 -1.6875 5.8125 C-3.0796875 5.7196875 -3.0796875 5.7196875 -4.5 5.625 C-4.83 6.945 -5.16 8.265 -5.5 9.625 C-6.16 8.635 -6.82 7.645 -7.5 6.625 C-7.5 8.935 -7.5 11.245 -7.5 13.625 C-9.5 11.625 -9.5 11.625 -9.6875 9.56640625 C-9.49478388 7.12132042 -9.23545412 4.96819102 -8.5 2.625 C-5.46777586 0.21300353 -3.85494602 -0.5782419 0 0 Z " fill="#272727" transform="translate(348.5,692.375)"/>
<path d="M0 0 C1.97909398 -0.02686553 3.95828971 -0.04633375 5.9375 -0.0625 C7.03964844 -0.07410156 8.14179688 -0.08570313 9.27734375 -0.09765625 C12 0 12 0 13 1 C13.04080783 2.99958364 13.04254356 5.00045254 13 7 C12.01 7.495 12.01 7.495 11 8 C11 6.35 11 4.7 11 3 C8.69 3.33 6.38 3.66 4 4 C3.95101562 4.69867188 3.90203125 5.39734375 3.8515625 6.1171875 C3.77679688 7.02726563 3.70203125 7.93734375 3.625 8.875 C3.55539063 9.77992188 3.48578125 10.68484375 3.4140625 11.6171875 C3 14 3 14 1 16 C-0.70678511 14.29321489 -0.4086914 12.02054277 -0.625 9.6875 C-0.72039062 8.72199219 -0.81578125 7.75648438 -0.9140625 6.76171875 C-0.99269663 4.23470366 -0.76091075 2.39062259 0 0 Z " fill="#0A0A09" transform="translate(236,505)"/>
<path d="M0 0 C0.55429687 0.3815625 1.10859375 0.763125 1.6796875 1.15625 C-2.33861081 5.69303842 -6.8139569 8.61402295 -12.3203125 11.15625 C-12.9803125 11.15625 -13.6403125 11.15625 -14.3203125 11.15625 C-13.81069044 7.58889559 -12.90958871 5.63555565 -10.1015625 3.3515625 C-3.08982811 -1.12357386 -3.08982811 -1.12357386 0 0 Z " fill="#181717" transform="translate(308.3203125,647.84375)"/>
<path d="M0 0 C2.375 0.1875 2.375 0.1875 5 1 C5.28875 1.78375 5.5775 2.5675 5.875 3.375 C7.17820991 6.41582312 7.70120194 6.59035241 10.625 7.8125 C11.73875 8.204375 12.8525 8.59625 14 9 C12.68 9.33 11.36 9.66 10 10 C10 10.66 10 11.32 10 12 C11.65 12 13.3 12 15 12 C15 12.33 15 12.66 15 13 C10.36890497 13.32309965 7.6598617 12.94822192 4 10 C2.6875 7.3125 2.6875 7.3125 2 5 C1.34 5 0.68 5 0 5 C0 3.35 0 1.7 0 0 Z " fill="#2C2C2B" transform="translate(328,704)"/>
<path d="M0 0 C-0.33 0.66 -0.66 1.32 -1 2 C-1.66 2 -2.32 2 -3 2 C-2.34 2.33 -1.68 2.66 -1 3 C-1.33 4.65 -1.66 6.3 -2 8 C-2.66 7.67 -3.32 7.34 -4 7 C-4 6.34 -4 5.68 -4 5 C-5.98 5.66 -7.96 6.32 -10 7 C-10 7.66 -10 8.32 -10 9 C-10.99 9 -11.98 9 -13 9 C-13.12375 8.360625 -13.2475 7.72125 -13.375 7.0625 C-13.684375 6.0415625 -13.684375 6.0415625 -14 5 C-14.66 4.67 -15.32 4.34 -16 4 C-13.90049414 3.13444052 -11.7952093 2.28288723 -9.6875 1.4375 C-8.51574219 0.96183594 -7.34398437 0.48617187 -6.13671875 -0.00390625 C-3 -1 -3 -1 0 0 Z " fill="#1D1D1D" transform="translate(329,672)"/>
<path d="M0 0 C0.66 0.33 1.32 0.66 2 1 C0.35 2.98 -1.3 4.96 -3 7 C-2.16597656 6.98839844 -1.33195313 6.97679687 -0.47265625 6.96484375 C6.11745662 6.91200207 12.46906374 7.11444932 19 8 C19 8.33 19 8.66 19 9 C10.75 9 2.5 9 -6 9 C-3.75 2.25 -3.75 2.25 0 0 Z " fill="#363837" transform="translate(238,479)"/>
<path d="M0 0 C2.97 0.495 2.97 0.495 6 1 C6 1.66 6 2.32 6 3 C7.32 3 8.64 3 10 3 C10.33 4.98 10.66 6.96 11 9 C8.69 8.67 6.38 8.34 4 8 C4 7.34 4 6.68 4 6 C2.68 6 1.36 6 0 6 C0 4.02 0 2.04 0 0 Z " fill="#252424" transform="translate(255,543)"/>
<path d="M0 0 C0.66 0.66 1.32 1.32 2 2 C1.89698401 5.09047979 0.95403102 6.04596898 -1.25 8.25 C-4.20989673 10.13357065 -5.57508802 10.39141851 -9 10 C-8.06409496 8.8944811 -7.12620142 7.79064547 -6.1875 6.6875 C-5.66542969 6.07261719 -5.14335937 5.45773437 -4.60546875 4.82421875 C-3.12827531 3.14575321 -1.59960869 1.56117966 0 0 Z " fill="#181717" transform="translate(261,531)"/>
<path d="M0 0 C-0.33 0.66 -0.66 1.32 -1 2 C-1.66 2 -2.32 2 -3 2 C-2.34 2.33 -1.68 2.66 -1 3 C-1.33 4.65 -1.66 6.3 -2 8 C-2.66 7.67 -3.32 7.34 -4 7 C-4 6.34 -4 5.68 -4 5 C-4.66 4.67 -5.32 4.34 -6 4 C-5.67 3.34 -5.34 2.68 -5 2 C-5.99 1.67 -6.98 1.34 -8 1 C-3.375 -1.125 -3.375 -1.125 0 0 Z " fill="#373737" transform="translate(329,672)"/>
<path d="M0 0 C0.66 0 1.32 0 2 0 C3.85776765 3.13498292 4.20140476 5.37471432 4 9 C3.67 7.68 3.34 6.36 3 5 C1.02 5.99 1.02 5.99 -1 7 C-1.33 6.34 -1.66 5.68 -2 5 C-1.0625 2.375 -1.0625 2.375 0 0 Z " fill="#30302F" transform="translate(285,632)"/>
<path d="M0 0 C0.33 1.98 0.66 3.96 1 6 C0.01 6.33 -0.98 6.66 -2 7 C-2.99 5.02 -3.98 3.04 -5 1 C-3 0 -3 0 0 0 Z " fill="#292928" transform="translate(269,559)"/>
<path d="M0 0 C0.99 0 1.98 0 3 0 C3.66 1.98 4.32 3.96 5 6 C4.01 6.33 3.02 6.66 2 7 C1.34 6.67 0.68 6.34 0 6 C0 4.02 0 2.04 0 0 Z " fill="#272625" transform="translate(280,601)"/>
<path d="M0 0 C2.97 0.495 2.97 0.495 6 1 C4.68 2.65 3.36 4.3 2 6 C1.34 4.02 0.68 2.04 0 0 Z " fill="#373636" transform="translate(273,586)"/>
<path d="M0 0 C1.85776765 3.13498292 2.20140476 5.37471432 2 9 C1.34 8.67 0.68 8.34 0 8 C0 7.01 0 6.02 0 5 C-0.99 4.67 -1.98 4.34 -3 4 C-2.34 3.67 -1.68 3.34 -1 3 C-0.67 2.01 -0.34 1.02 0 0 Z " fill="#303030" transform="translate(710,371)"/>
<path d="M0 0 C0.33 0.66 0.66 1.32 1 2 C0.01 1.67 -0.98 1.34 -2 1 C-1.34 0.67 -0.68 0.34 0 0 Z " fill="#4F4E4C" transform="translate(281,616)"/>
<path d="M0 0 C1 4 1 4 1 4 Z " fill="#494948" transform="translate(285,602)"/>
<path d="M0 0 C0.66 0 1.32 0 2 0 C2 0.66 2 1.32 2 2 C1.34 2 0.68 2 0 2 C0 1.34 0 0.68 0 0 Z " fill="#1E1F20" transform="translate(440,488)"/>
<path d="M0 0 C0.33 0.99 0.66 1.98 1 3 C0.34 2.67 -0.32 2.34 -1 2 C-0.67 1.34 -0.34 0.68 0 0 Z " fill="#303030" transform="translate(681,464)"/>
<path d="M0 0 C0 3 0 3 0 3 Z " fill="#323232" transform="translate(525,341)"/>
<path d="" fill="#5B5A58" transform="translate(0,0)"/>
<path d="M0 0 C0.66 0 1.32 0 2 0 C1.67 0.66 1.34 1.32 1 2 C0.67 1.34 0.34 0.68 0 0 Z " fill="#4F5052" transform="translate(336,704)"/>
<path d="M0 0 C3 1 3 1 3 1 Z " fill="#525150" transform="translate(312,691)"/>
<path d="M0 0 C0.33 0.66 0.66 1.32 1 2 C0.34 1.67 -0.32 1.34 -1 1 C-0.67 0.67 -0.34 0.34 0 0 Z " fill="#494B4A" transform="translate(274,594)"/>
<path d="" fill="#353637" transform="translate(0,0)"/>
<path d="M0 0 C0.66 0.66 1.32 1.32 2 2 C1.34 2 0.68 2 0 2 C0 1.34 0 0.68 0 0 Z " fill="#484547" transform="translate(240,541)"/>
<path d="M0 0 C0.66 0 1.32 0 2 0 C1.67 0.66 1.34 1.32 1 2 C0.67 1.34 0.34 0.68 0 0 Z " fill="#1B1C1B" transform="translate(523,510)"/>
<path d="M0 0 C0.66 0.66 1.32 1.32 2 2 C1.34 2 0.68 2 0 2 C0 1.34 0 0.68 0 0 Z " fill="#4C4B4B" transform="translate(240,474)"/>
<path d="M0 0 C0.66 0.66 1.32 1.32 2 2 C1.34 2 0.68 2 0 2 C0 1.34 0 0.68 0 0 Z " fill="#4D4D50" transform="translate(232,464)"/>
<path d="M0 0 C0.66 0 1.32 0 2 0 C1.67 0.66 1.34 1.32 1 2 C0.67 1.34 0.34 0.68 0 0 Z " fill="#4B4949" transform="translate(248,464)"/>
<path d="M0 0 C0.66 0.66 1.32 1.32 2 2 C1.34 2 0.68 2 0 2 C0 1.34 0 0.68 0 0 Z " fill="#333433" transform="translate(480,344)"/>
<path d="M0 0 C0.66 0.66 1.32 1.32 2 2 C1.34 2 0.68 2 0 2 C0 1.34 0 0.68 0 0 Z " fill="#393A39" transform="translate(688,330)"/>
<path d="M0 0 C0.99 0.495 0.99 0.495 2 1 C1.01 1.495 1.01 1.495 0 2 C0 1.34 0 0.68 0 0 Z " fill="#464647" transform="translate(729,310)"/>
<path d="M0 0 C3 1 3 1 3 1 Z " fill="#555554" transform="translate(416,219)"/>
<path d="M0 0 C2 1 2 1 2 1 Z " fill="#525252" transform="translate(405,759)"/>
<path d="M0 0 C2 1 2 1 2 1 Z " fill="#535452" transform="translate(339,718)"/>
<path d="" fill="#505252" transform="translate(0,0)"/>
<path d="M0 0 C2 1 2 1 2 1 Z " fill="#524F50" transform="translate(312,693)"/>
<path d="" fill="#4F4B4C" transform="translate(0,0)"/>
<path d="" fill="#525152" transform="translate(0,0)"/>
<path d="" fill="#4A4947" transform="translate(0,0)"/>
<path d="M0 0 C2 1 2 1 2 1 Z " fill="#4B4A4B" transform="translate(775,631)"/>
<path d="M0 0 C2 1 2 1 2 1 Z " fill="#4D4D4A" transform="translate(275,616)"/>
<path d="" fill="#515151" transform="translate(0,0)"/>
<path d="" fill="#494646" transform="translate(0,0)"/>
<path d="M0 0 C2 1 2 1 2 1 Z " fill="#4F4D4D" transform="translate(256,602)"/>
<path d="" fill="#4B4B4B" transform="translate(0,0)"/>
<path d="M0 0 C2 1 2 1 2 1 Z " fill="#313232" transform="translate(601,586)"/>
<path d="M0 0 C2 1 2 1 2 1 Z " fill="#303031" transform="translate(704,580)"/>
<path d="" fill="#1E1F1F" transform="translate(0,0)"/>
<path d="" fill="#474848" transform="translate(0,0)"/>
<path d="" fill="#1B1B1A" transform="translate(0,0)"/>
<path d="M0 0 C2 1 2 1 2 1 Z " fill="#1A1A1B" transform="translate(521,504)"/>
<path d="M0 0 C2 1 2 1 2 1 Z " fill="#4A4847" transform="translate(253,478)"/>
<path d="" fill="#1F1E1F" transform="translate(0,0)"/>
<path d="" fill="#484948" transform="translate(0,0)"/>
<path d="" fill="#474747" transform="translate(0,0)"/>
<path d="" fill="#1F201F" transform="translate(0,0)"/>
<path d="" fill="#212021" transform="translate(0,0)"/>
<path d="" fill="#212222" transform="translate(0,0)"/>
<path d="" fill="#1F2120" transform="translate(0,0)"/>
<path d="" fill="#464748" transform="translate(0,0)"/>
<path d="" fill="#505150" transform="translate(0,0)"/>
<path d="" fill="#262627" transform="translate(0,0)"/>
<path d="" fill="#444244" transform="translate(0,0)"/>
<path d="M0 0 C2 1 2 1 2 1 Z " fill="#4A494A" transform="translate(753,342)"/>
<path d="" fill="#353635" transform="translate(0,0)"/>
<path d="M0 0 C2 1 2 1 2 1 Z " fill="#3C3E3C" transform="translate(661,340)"/>
<path d="M0 0 C2 1 2 1 2 1 Z " fill="#313334" transform="translate(592,336)"/>
<path d="M0 0 C2 1 2 1 2 1 Z " fill="#383737" transform="translate(525,336)"/>
<path d="" fill="#494848" transform="translate(0,0)"/>
<path d="M0 0 C2 1 2 1 2 1 Z " fill="#393839" transform="translate(306,317)"/>
<path d="" fill="#434244" transform="translate(0,0)"/>
<path d="M0 0 C2 1 2 1 2 1 Z " fill="#434442" transform="translate(289,299)"/>
<path d="M0 0 C2 1 2 1 2 1 Z " fill="#4F4F50" transform="translate(608,228)"/>
<path d="M0 0 C2 1 2 1 2 1 Z " fill="#525152" transform="translate(454,219)"/>
<path d="M0 0 C2 1 2 1 2 1 Z " fill="#53524F" transform="translate(528,213)"/>
<path d="M0 0 C2 1 2 1 2 1 Z " fill="#535452" transform="translate(572,208)"/>
<path d="M0 0 C2 1 2 1 2 1 Z " fill="#575754" transform="translate(456,208)"/>
<path d="" fill="#4E4E4E" transform="translate(0,0)"/>
<path d="" fill="#4E4D4F" transform="translate(0,0)"/>
<path d="" fill="#4E4E4C" transform="translate(0,0)"/>
<path d="" fill="#51514F" transform="translate(0,0)"/>
<path d="" fill="#4F4C4E" transform="translate(0,0)"/>
<path d="" fill="#515050" transform="translate(0,0)"/>
<path d="" fill="#535251" transform="translate(0,0)"/>
<path d="" fill="#50504E" transform="translate(0,0)"/>
<path d="" fill="#4A4948" transform="translate(0,0)"/>
<path d="" fill="#4F4D4A" transform="translate(0,0)"/>
<path d="" fill="#4D4E4C" transform="translate(0,0)"/>
<path d="" fill="#535150" transform="translate(0,0)"/>
<path d="" fill="#4B4B4D" transform="translate(0,0)"/>
<path d="" fill="#51504F" transform="translate(0,0)"/>
<path d="" fill="#514D50" transform="translate(0,0)"/>
<path d="" fill="#535252" transform="translate(0,0)"/>
<path d="" fill="#4F5051" transform="translate(0,0)"/>
<path d="" fill="#4F504E" transform="translate(0,0)"/>
<path d="" fill="#4D4E4D" transform="translate(0,0)"/>
<path d="" fill="#4D504D" transform="translate(0,0)"/>
<path d="" fill="#545452" transform="translate(0,0)"/>
<path d="" fill="#4E4E4D" transform="translate(0,0)"/>
<path d="" fill="#525254" transform="translate(0,0)"/>
<path d="" fill="#4E4F4F" transform="translate(0,0)"/>
<path d="" fill="#4F4E4C" transform="translate(0,0)"/>
<path d="" fill="#4F504E" transform="translate(0,0)"/>
<path d="" fill="#535053" transform="translate(0,0)"/>
<path d="" fill="#4E514F" transform="translate(0,0)"/>
<path d="" fill="#4C4C4C" transform="translate(0,0)"/>
<path d="" fill="#585758" transform="translate(0,0)"/>
<path d="" fill="#545153" transform="translate(0,0)"/>
<path d="" fill="#4D4D4D" transform="translate(0,0)"/>
<path d="" fill="#504F51" transform="translate(0,0)"/>
<path d="" fill="#4B4A4C" transform="translate(0,0)"/>
<path d="" fill="#525051" transform="translate(0,0)"/>
<path d="" fill="#4F5050" transform="translate(0,0)"/>
<path d="" fill="#515050" transform="translate(0,0)"/>
<path d="" fill="#545054" transform="translate(0,0)"/>
<path d="" fill="#484C4D" transform="translate(0,0)"/>
<path d="" fill="#575753" transform="translate(0,0)"/>
<path d="" fill="#565756" transform="translate(0,0)"/>
<path d="" fill="#504F4F" transform="translate(0,0)"/>
<path d="" fill="#515451" transform="translate(0,0)"/>
<path d="" fill="#555452" transform="translate(0,0)"/>
<path d="" fill="#545554" transform="translate(0,0)"/>
<path d="" fill="#504F50" transform="translate(0,0)"/>
<path d="" fill="#4F504E" transform="translate(0,0)"/>
<path d="" fill="#595655" transform="translate(0,0)"/>
<path d="" fill="#4F4E51" transform="translate(0,0)"/>
<path d="" fill="#4D5151" transform="translate(0,0)"/>
<path d="" fill="#515453" transform="translate(0,0)"/>
<path d="" fill="#515350" transform="translate(0,0)"/>
<path d="" fill="#505053" transform="translate(0,0)"/>
<path d="" fill="#51504F" transform="translate(0,0)"/>
<path d="" fill="#4C4E4E" transform="translate(0,0)"/>
<path d="" fill="#4F4D4E" transform="translate(0,0)"/>
<path d="" fill="#4F4F51" transform="translate(0,0)"/>
<path d="" fill="#4D4D50" transform="translate(0,0)"/>
<path d="" fill="#494A4B" transform="translate(0,0)"/>
<path d="" fill="#545252" transform="translate(0,0)"/>
<path d="" fill="#4B4D4B" transform="translate(0,0)"/>
<path d="" fill="#464749" transform="translate(0,0)"/>
<path d="" fill="#4A4D4B" transform="translate(0,0)"/>
<path d="" fill="#4E504D" transform="translate(0,0)"/>
<path d="" fill="#4C4C4C" transform="translate(0,0)"/>
<path d="" fill="#4F4F4E" transform="translate(0,0)"/>
<path d="" fill="#504F50" transform="translate(0,0)"/>
<path d="" fill="#515151" transform="translate(0,0)"/>
<path d="" fill="#504E4F" transform="translate(0,0)"/>
<path d="" fill="#505150" transform="translate(0,0)"/>
<path d="" fill="#50504E" transform="translate(0,0)"/>
<path d="" fill="#4F4D4D" transform="translate(0,0)"/>
<path d="" fill="#414641" transform="translate(0,0)"/>
<path d="" fill="#4D4C4B" transform="translate(0,0)"/>
<path d="" fill="#403E41" transform="translate(0,0)"/>
<path d="" fill="#4D504E" transform="translate(0,0)"/>
<path d="" fill="#4C484B" transform="translate(0,0)"/>
<path d="" fill="#4C4F48" transform="translate(0,0)"/>
<path d="" fill="#4C4A4C" transform="translate(0,0)"/>
<path d="" fill="#4F514E" transform="translate(0,0)"/>
<path d="" fill="#353336" transform="translate(0,0)"/>
<path d="" fill="#4B4C49" transform="translate(0,0)"/>
<path d="" fill="#545453" transform="translate(0,0)"/>
<path d="" fill="#535354" transform="translate(0,0)"/>
<path d="" fill="#4E4B49" transform="translate(0,0)"/>
<path d="" fill="#312F30" transform="translate(0,0)"/>
<path d="" fill="#2D2D2C" transform="translate(0,0)"/>
<path d="" fill="#4C4849" transform="translate(0,0)"/>
<path d="" fill="#4E4D4C" transform="translate(0,0)"/>
<path d="" fill="#484847" transform="translate(0,0)"/>
<path d="" fill="#32302F" transform="translate(0,0)"/>
<path d="" fill="#4A484A" transform="translate(0,0)"/>
<path d="" fill="#4C4C49" transform="translate(0,0)"/>
<path d="" fill="#4A4C48" transform="translate(0,0)"/>
<path d="" fill="#262826" transform="translate(0,0)"/>
<path d="" fill="#4E4C4B" transform="translate(0,0)"/>
<path d="" fill="#4F4F4C" transform="translate(0,0)"/>
<path d="" fill="#292A28" transform="translate(0,0)"/>
<path d="" fill="#272728" transform="translate(0,0)"/>
<path d="" fill="#4D4D4C" transform="translate(0,0)"/>
<path d="" fill="#272729" transform="translate(0,0)"/>
<path d="" fill="#4E4E4B" transform="translate(0,0)"/>
<path d="" fill="#4D4B4B" transform="translate(0,0)"/>
<path d="" fill="#262526" transform="translate(0,0)"/>
<path d="" fill="#524E4D" transform="translate(0,0)"/>
<path d="" fill="#4A4947" transform="translate(0,0)"/>
<path d="" fill="#4E4E4B" transform="translate(0,0)"/>
<path d="" fill="#4B4947" transform="translate(0,0)"/>
<path d="" fill="#4D4D4A" transform="translate(0,0)"/>
<path d="" fill="#252727" transform="translate(0,0)"/>
<path d="" fill="#4E504E" transform="translate(0,0)"/>
<path d="" fill="#525154" transform="translate(0,0)"/>
<path d="" fill="#505153" transform="translate(0,0)"/>
<path d="" fill="#51504F" transform="translate(0,0)"/>
<path d="" fill="#494647" transform="translate(0,0)"/>
<path d="" fill="#4C4B4A" transform="translate(0,0)"/>
<path d="" fill="#4C4C49" transform="translate(0,0)"/>
<path d="" fill="#4E4C4E" transform="translate(0,0)"/>
<path d="" fill="#494847" transform="translate(0,0)"/>
<path d="" fill="#3D3C3D" transform="translate(0,0)"/>
<path d="" fill="#3D3C3A" transform="translate(0,0)"/>
<path d="" fill="#202321" transform="translate(0,0)"/>
<path d="" fill="#3A3A38" transform="translate(0,0)"/>
<path d="" fill="#383839" transform="translate(0,0)"/>
<path d="" fill="#3A3737" transform="translate(0,0)"/>
<path d="" fill="#474645" transform="translate(0,0)"/>
<path d="" fill="#383739" transform="translate(0,0)"/>
<path d="" fill="#363736" transform="translate(0,0)"/>
<path d="" fill="#3B3A38" transform="translate(0,0)"/>
<path d="" fill="#242425" transform="translate(0,0)"/>
<path d="" fill="#494948" transform="translate(0,0)"/>
<path d="" fill="#1E2020" transform="translate(0,0)"/>
<path d="" fill="#393937" transform="translate(0,0)"/>
<path d="" fill="#292A2C" transform="translate(0,0)"/>
<path d="" fill="#494748" transform="translate(0,0)"/>
<path d="" fill="#4E4E4D" transform="translate(0,0)"/>
<path d="" fill="#3A3A3A" transform="translate(0,0)"/>
<path d="" fill="#1F1D1F" transform="translate(0,0)"/>
<path d="" fill="#4A4949" transform="translate(0,0)"/>
<path d="" fill="#4A4A49" transform="translate(0,0)"/>
<path d="" fill="#302F31" transform="translate(0,0)"/>
<path d="" fill="#454445" transform="translate(0,0)"/>
<path d="" fill="#262627" transform="translate(0,0)"/>
<path d="" fill="#2A2B29" transform="translate(0,0)"/>
<path d="" fill="#242422" transform="translate(0,0)"/>
<path d="" fill="#494F4A" transform="translate(0,0)"/>
<path d="" fill="#222122" transform="translate(0,0)"/>
<path d="" fill="#484B47" transform="translate(0,0)"/>
<path d="" fill="#20201F" transform="translate(0,0)"/>
<path d="" fill="#4B4846" transform="translate(0,0)"/>
<path d="" fill="#3A3B3B" transform="translate(0,0)"/>
<path d="" fill="#494849" transform="translate(0,0)"/>
<path d="" fill="#222123" transform="translate(0,0)"/>
<path d="" fill="#212120" transform="translate(0,0)"/>
<path d="" fill="#333337" transform="translate(0,0)"/>
<path d="" fill="#1E1F1E" transform="translate(0,0)"/>
<path d="" fill="#454745" transform="translate(0,0)"/>
<path d="" fill="#444443" transform="translate(0,0)"/>
<path d="" fill="#454444" transform="translate(0,0)"/>
<path d="" fill="#474446" transform="translate(0,0)"/>
<path d="" fill="#1E1E1C" transform="translate(0,0)"/>
<path d="" fill="#1F201F" transform="translate(0,0)"/>
<path d="" fill="#4A4A49" transform="translate(0,0)"/>
<path d="" fill="#353334" transform="translate(0,0)"/>
<path d="" fill="#49484A" transform="translate(0,0)"/>
<path d="" fill="#1F201F" transform="translate(0,0)"/>
<path d="" fill="#4A4241" transform="translate(0,0)"/>
<path d="" fill="#201F20" transform="translate(0,0)"/>
<path d="" fill="#1E221E" transform="translate(0,0)"/>
<path d="" fill="#1E1E1C" transform="translate(0,0)"/>
<path d="" fill="#494647" transform="translate(0,0)"/>
<path d="" fill="#474644" transform="translate(0,0)"/>
<path d="" fill="#4B4A49" transform="translate(0,0)"/>
<path d="" fill="#1D1E1F" transform="translate(0,0)"/>
<path d="" fill="#484849" transform="translate(0,0)"/>
<path d="" fill="#20201F" transform="translate(0,0)"/>
<path d="" fill="#1E1F21" transform="translate(0,0)"/>
<path d="" fill="#1E1E1E" transform="translate(0,0)"/>
<path d="" fill="#454448" transform="translate(0,0)"/>
<path d="" fill="#1E1E1F" transform="translate(0,0)"/>
<path d="" fill="#4A4949" transform="translate(0,0)"/>
<path d="" fill="#222124" transform="translate(0,0)"/>
<path d="" fill="#191C1A" transform="translate(0,0)"/>
<path d="" fill="#484748" transform="translate(0,0)"/>
<path d="" fill="#191818" transform="translate(0,0)"/>
<path d="" fill="#1D1E1D" transform="translate(0,0)"/>
<path d="" fill="#464345" transform="translate(0,0)"/>
<path d="" fill="#1A1C1C" transform="translate(0,0)"/>
<path d="" fill="#1C1D1B" transform="translate(0,0)"/>
<path d="" fill="#1C1A1C" transform="translate(0,0)"/>
<path d="" fill="#191D1E" transform="translate(0,0)"/>
<path d="" fill="#1B1E1D" transform="translate(0,0)"/>
<path d="" fill="#4B4949" transform="translate(0,0)"/>
<path d="" fill="#4B494A" transform="translate(0,0)"/>
<path d="" fill="#1C1D1F" transform="translate(0,0)"/>
<path d="" fill="#484749" transform="translate(0,0)"/>
<path d="" fill="#1D1F1D" transform="translate(0,0)"/>
<path d="" fill="#464646" transform="translate(0,0)"/>
<path d="" fill="#484849" transform="translate(0,0)"/>
<path d="" fill="#1F201F" transform="translate(0,0)"/>
<path d="" fill="#494648" transform="translate(0,0)"/>
<path d="" fill="#484647" transform="translate(0,0)"/>
<path d="" fill="#1C1B1B" transform="translate(0,0)"/>
<path d="" fill="#19191B" transform="translate(0,0)"/>
<path d="" fill="#474A48" transform="translate(0,0)"/>
<path d="" fill="#201E1F" transform="translate(0,0)"/>
<path d="" fill="#1A1A1D" transform="translate(0,0)"/>
<path d="" fill="#1D1A1D" transform="translate(0,0)"/>
<path d="" fill="#1A1D1D" transform="translate(0,0)"/>
<path d="" fill="#1E1E1E" transform="translate(0,0)"/>
<path d="" fill="#383838" transform="translate(0,0)"/>
<path d="" fill="#201F20" transform="translate(0,0)"/>
<path d="" fill="#1C1C1D" transform="translate(0,0)"/>
<path d="" fill="#1A1C1C" transform="translate(0,0)"/>
<path d="" fill="#50524F" transform="translate(0,0)"/>
<path d="" fill="#1A1B1D" transform="translate(0,0)"/>
<path d="" fill="#1C1D1C" transform="translate(0,0)"/>
<path d="" fill="#383638" transform="translate(0,0)"/>
<path d="" fill="#494A4B" transform="translate(0,0)"/>
<path d="" fill="#4E4A4C" transform="translate(0,0)"/>
<path d="" fill="#4F4F4F" transform="translate(0,0)"/>
<path d="" fill="#1C1D1B" transform="translate(0,0)"/>
<path d="" fill="#1C1E1C" transform="translate(0,0)"/>
<path d="" fill="#4E4F4D" transform="translate(0,0)"/>
<path d="" fill="#202120" transform="translate(0,0)"/>
<path d="" fill="#1A1C1B" transform="translate(0,0)"/>
<path d="" fill="#4A4949" transform="translate(0,0)"/>
<path d="" fill="#303031" transform="translate(0,0)"/>
<path d="" fill="#202322" transform="translate(0,0)"/>
<path d="" fill="#2F2E2E" transform="translate(0,0)"/>
<path d="" fill="#2F312F" transform="translate(0,0)"/>
<path d="" fill="#373839" transform="translate(0,0)"/>
<path d="" fill="#4D4C4D" transform="translate(0,0)"/>
<path d="" fill="#4A4948" transform="translate(0,0)"/>
<path d="" fill="#333534" transform="translate(0,0)"/>
<path d="" fill="#4D514D" transform="translate(0,0)"/>
<path d="" fill="#4F504E" transform="translate(0,0)"/>
<path d="" fill="#1A1C1E" transform="translate(0,0)"/>
<path d="" fill="#484A4A" transform="translate(0,0)"/>
<path d="" fill="#343536" transform="translate(0,0)"/>
<path d="" fill="#323534" transform="translate(0,0)"/>
<path d="" fill="#353735" transform="translate(0,0)"/>
<path d="" fill="#1B1C1C" transform="translate(0,0)"/>
<path d="" fill="#363738" transform="translate(0,0)"/>
<path d="" fill="#1C1C1C" transform="translate(0,0)"/>
<path d="" fill="#201F1F" transform="translate(0,0)"/>
<path d="" fill="#4A4A4A" transform="translate(0,0)"/>
<path d="" fill="#212120" transform="translate(0,0)"/>
<path d="" fill="#353738" transform="translate(0,0)"/>
<path d="" fill="#212022" transform="translate(0,0)"/>
<path d="" fill="#383836" transform="translate(0,0)"/>
<path d="" fill="#49494A" transform="translate(0,0)"/>
<path d="" fill="#1C1E20" transform="translate(0,0)"/>
<path d="" fill="#484646" transform="translate(0,0)"/>
<path d="" fill="#212522" transform="translate(0,0)"/>
<path d="" fill="#363739" transform="translate(0,0)"/>
<path d="" fill="#242524" transform="translate(0,0)"/>
<path d="" fill="#47484A" transform="translate(0,0)"/>
<path d="" fill="#1F2021" transform="translate(0,0)"/>
<path d="" fill="#1E1F1E" transform="translate(0,0)"/>
<path d="" fill="#1A1C1D" transform="translate(0,0)"/>
<path d="" fill="#212123" transform="translate(0,0)"/>
<path d="" fill="#1D201F" transform="translate(0,0)"/>
<path d="" fill="#232623" transform="translate(0,0)"/>
<path d="" fill="#1F2022" transform="translate(0,0)"/>
<path d="" fill="#212322" transform="translate(0,0)"/>
<path d="" fill="#1D1E1E" transform="translate(0,0)"/>
<path d="" fill="#525252" transform="translate(0,0)"/>
<path d="" fill="#525553" transform="translate(0,0)"/>
<path d="" fill="#505251" transform="translate(0,0)"/>
<path d="" fill="#545253" transform="translate(0,0)"/>
<path d="" fill="#525052" transform="translate(0,0)"/>
<path d="" fill="#373635" transform="translate(0,0)"/>
<path d="" fill="#484748" transform="translate(0,0)"/>
<path d="" fill="#464847" transform="translate(0,0)"/>
<path d="" fill="#494748" transform="translate(0,0)"/>
<path d="" fill="#494646" transform="translate(0,0)"/>
<path d="" fill="#242324" transform="translate(0,0)"/>
<path d="" fill="#4E4E4E" transform="translate(0,0)"/>
<path d="" fill="#232323" transform="translate(0,0)"/>
<path d="" fill="#212323" transform="translate(0,0)"/>
<path d="" fill="#212121" transform="translate(0,0)"/>
<path d="" fill="#515450" transform="translate(0,0)"/>
<path d="" fill="#2C2A2B" transform="translate(0,0)"/>
<path d="" fill="#1F2121" transform="translate(0,0)"/>
<path d="" fill="#4F4F4F" transform="translate(0,0)"/>
<path d="" fill="#4B4B4A" transform="translate(0,0)"/>
<path d="" fill="#504E51" transform="translate(0,0)"/>
<path d="" fill="#242422" transform="translate(0,0)"/>
<path d="" fill="#4D5050" transform="translate(0,0)"/>
<path d="" fill="#4A494A" transform="translate(0,0)"/>
<path d="" fill="#232220" transform="translate(0,0)"/>
<path d="" fill="#2F2F2E" transform="translate(0,0)"/>
<path d="" fill="#494A48" transform="translate(0,0)"/>
<path d="" fill="#242425" transform="translate(0,0)"/>
<path d="" fill="#222322" transform="translate(0,0)"/>
<path d="" fill="#232322" transform="translate(0,0)"/>
<path d="" fill="#4F4B4B" transform="translate(0,0)"/>
<path d="" fill="#474647" transform="translate(0,0)"/>
<path d="" fill="#4B4A49" transform="translate(0,0)"/>
<path d="" fill="#3A3836" transform="translate(0,0)"/>
<path d="" fill="#494A4A" transform="translate(0,0)"/>
<path d="" fill="#484B46" transform="translate(0,0)"/>
<path d="" fill="#474A49" transform="translate(0,0)"/>
<path d="" fill="#262829" transform="translate(0,0)"/>
<path d="" fill="#454849" transform="translate(0,0)"/>
<path d="" fill="#2A2A2C" transform="translate(0,0)"/>
<path d="" fill="#222121" transform="translate(0,0)"/>
<path d="" fill="#232323" transform="translate(0,0)"/>
<path d="" fill="#494747" transform="translate(0,0)"/>
<path d="" fill="#363736" transform="translate(0,0)"/>
<path d="" fill="#4A4B4C" transform="translate(0,0)"/>
<path d="" fill="#2D2C2F" transform="translate(0,0)"/>
<path d="" fill="#4A4A4A" transform="translate(0,0)"/>
<path d="" fill="#2A2929" transform="translate(0,0)"/>
<path d="" fill="#494749" transform="translate(0,0)"/>
<path d="" fill="#4A4A49" transform="translate(0,0)"/>
<path d="" fill="#2C312C" transform="translate(0,0)"/>
<path d="" fill="#2F302F" transform="translate(0,0)"/>
<path d="" fill="#4A4A49" transform="translate(0,0)"/>
<path d="" fill="#272729" transform="translate(0,0)"/>
<path d="" fill="#313030" transform="translate(0,0)"/>
<path d="" fill="#444343" transform="translate(0,0)"/>
<path d="" fill="#313033" transform="translate(0,0)"/>
<path d="" fill="#383739" transform="translate(0,0)"/>
<path d="" fill="#323433" transform="translate(0,0)"/>
<path d="" fill="#414143" transform="translate(0,0)"/>
<path d="" fill="#28292C" transform="translate(0,0)"/>
<path d="" fill="#3A3B39" transform="translate(0,0)"/>
<path d="" fill="#333333" transform="translate(0,0)"/>
<path d="" fill="#323432" transform="translate(0,0)"/>
<path d="" fill="#353635" transform="translate(0,0)"/>
<path d="" fill="#363734" transform="translate(0,0)"/>
<path d="" fill="#333233" transform="translate(0,0)"/>
<path d="" fill="#30302F" transform="translate(0,0)"/>
<path d="" fill="#4B484C" transform="translate(0,0)"/>
<path d="" fill="#3A3939" transform="translate(0,0)"/>
<path d="" fill="#3C3B3C" transform="translate(0,0)"/>
<path d="" fill="#464648" transform="translate(0,0)"/>
<path d="" fill="#423F40" transform="translate(0,0)"/>
<path d="" fill="#2D2E2E" transform="translate(0,0)"/>
<path d="" fill="#303230" transform="translate(0,0)"/>
<path d="" fill="#3C3C3A" transform="translate(0,0)"/>
<path d="" fill="#484A48" transform="translate(0,0)"/>
<path d="" fill="#474646" transform="translate(0,0)"/>
<path d="" fill="#383537" transform="translate(0,0)"/>
<path d="" fill="#3C3939" transform="translate(0,0)"/>
<path d="" fill="#323334" transform="translate(0,0)"/>
<path d="" fill="#373B39" transform="translate(0,0)"/>
<path d="" fill="#3A393A" transform="translate(0,0)"/>
<path d="" fill="#313130" transform="translate(0,0)"/>
<path d="" fill="#393738" transform="translate(0,0)"/>
<path d="" fill="#383A3A" transform="translate(0,0)"/>
<path d="" fill="#3E3D3D" transform="translate(0,0)"/>
<path d="" fill="#3D3B3B" transform="translate(0,0)"/>
<path d="" fill="#343333" transform="translate(0,0)"/>
<path d="" fill="#393B3B" transform="translate(0,0)"/>
<path d="" fill="#403E40" transform="translate(0,0)"/>
<path d="" fill="#434244" transform="translate(0,0)"/>
<path d="" fill="#4A4949" transform="translate(0,0)"/>
<path d="" fill="#303332" transform="translate(0,0)"/>
<path d="" fill="#3C3D3E" transform="translate(0,0)"/>
<path d="" fill="#3F3E3F" transform="translate(0,0)"/>
<path d="" fill="#3C3C3D" transform="translate(0,0)"/>
<path d="" fill="#3B3839" transform="translate(0,0)"/>
<path d="" fill="#444649" transform="translate(0,0)"/>
<path d="" fill="#464A47" transform="translate(0,0)"/>
<path d="" fill="#434343" transform="translate(0,0)"/>
<path d="" fill="#434040" transform="translate(0,0)"/>
<path d="" fill="#4D4D4C" transform="translate(0,0)"/>
<path d="" fill="#3F3D3E" transform="translate(0,0)"/>
<path d="" fill="#433E42" transform="translate(0,0)"/>
<path d="" fill="#434242" transform="translate(0,0)"/>
<path d="" fill="#454446" transform="translate(0,0)"/>
<path d="" fill="#454444" transform="translate(0,0)"/>
<path d="" fill="#434546" transform="translate(0,0)"/>
<path d="" fill="#474749" transform="translate(0,0)"/>
<path d="" fill="#4D4B4D" transform="translate(0,0)"/>
<path d="" fill="#393837" transform="translate(0,0)"/>
<path d="" fill="#494748" transform="translate(0,0)"/>
<path d="" fill="#474646" transform="translate(0,0)"/>
<path d="" fill="#444543" transform="translate(0,0)"/>
<path d="" fill="#4B4949" transform="translate(0,0)"/>
<path d="" fill="#4A494A" transform="translate(0,0)"/>
<path d="" fill="#4B484C" transform="translate(0,0)"/>
<path d="" fill="#454446" transform="translate(0,0)"/>
<path d="" fill="#4B484B" transform="translate(0,0)"/>
<path d="" fill="#4B4C4B" transform="translate(0,0)"/>
<path d="" fill="#4F4E4D" transform="translate(0,0)"/>
<path d="" fill="#4F4D4E" transform="translate(0,0)"/>
<path d="" fill="#4E4F50" transform="translate(0,0)"/>
<path d="" fill="#4C4C4C" transform="translate(0,0)"/>
<path d="" fill="#4E4F4D" transform="translate(0,0)"/>
<path d="" fill="#444648" transform="translate(0,0)"/>
<path d="" fill="#474748" transform="translate(0,0)"/>
<path d="" fill="#404140" transform="translate(0,0)"/>
<path d="" fill="#4E4D4C" transform="translate(0,0)"/>
<path d="" fill="#4C4F4C" transform="translate(0,0)"/>
<path d="" fill="#494A47" transform="translate(0,0)"/>
<path d="" fill="#4C4E4D" transform="translate(0,0)"/>
<path d="" fill="#4C4D4B" transform="translate(0,0)"/>
<path d="" fill="#4B4E51" transform="translate(0,0)"/>
<path d="" fill="#4D5051" transform="translate(0,0)"/>
<path d="" fill="#4E4E4D" transform="translate(0,0)"/>
<path d="" fill="#4E4C4B" transform="translate(0,0)"/>
<path d="" fill="#4E4C4D" transform="translate(0,0)"/>
<path d="" fill="#4E4E4E" transform="translate(0,0)"/>
<path d="" fill="#50504D" transform="translate(0,0)"/>
<path d="" fill="#515152" transform="translate(0,0)"/>
<path d="" fill="#4D4B4C" transform="translate(0,0)"/>
<path d="" fill="#4F4F4F" transform="translate(0,0)"/>
<path d="" fill="#504F4F" transform="translate(0,0)"/>
<path d="" fill="#4F4F4D" transform="translate(0,0)"/>
<path d="" fill="#4F4F51" transform="translate(0,0)"/>
<path d="" fill="#4E504F" transform="translate(0,0)"/>
<path d="" fill="#524F50" transform="translate(0,0)"/>
<path d="" fill="#4F5050" transform="translate(0,0)"/>
<path d="" fill="#524F51" transform="translate(0,0)"/>
<path d="" fill="#51504F" transform="translate(0,0)"/>
<path d="" fill="#545556" transform="translate(0,0)"/>
<path d="" fill="#515251" transform="translate(0,0)"/>
<path d="" fill="#51504E" transform="translate(0,0)"/>
<path d="" fill="#4E4F4E" transform="translate(0,0)"/>
<path d="" fill="#50514F" transform="translate(0,0)"/>
<path d="" fill="#565553" transform="translate(0,0)"/>
<path d="" fill="#545352" transform="translate(0,0)"/>
<path d="" fill="#565252" transform="translate(0,0)"/>
<path d="" fill="#515052" transform="translate(0,0)"/>
<path d="" fill="#525052" transform="translate(0,0)"/>
<path d="" fill="#595756" transform="translate(0,0)"/>
<path d="" fill="#504E51" transform="translate(0,0)"/>
<path d="" fill="#4F4C4F" transform="translate(0,0)"/>
<path d="" fill="#51514F" transform="translate(0,0)"/>
<path d="" fill="#575655" transform="translate(0,0)"/>
<path d="" fill="#535353" transform="translate(0,0)"/>
<path d="" fill="#4E4D4F" transform="translate(0,0)"/>
<path d="" fill="#525452" transform="translate(0,0)"/>
<path d="" fill="#515051" transform="translate(0,0)"/>
<path d="" fill="#595856" transform="translate(0,0)"/>
<path d="" fill="#585756" transform="translate(0,0)"/>
<path d="" fill="#5B5B58" transform="translate(0,0)"/>
</svg>
